<?xml version="1.0" encoding="iso-8859-1"?>
<!-- Generator: Adobe Illustrator 21.1.0, SVG Export Plug-In . SVG Version: 6.00 Build 0)  -->
<svg version="1.1" id="Layer_1" xmlns="http://www.w3.org/2000/svg" xmlns:xlink="http://www.w3.org/1999/xlink" x="0px" y="0px"
	 viewBox="0 0 100.354 100.352" style="enable-background:new 0 0 100.354 100.352;" xml:space="preserve">
<g>
	<path d="M45.145,17.252l-15.779-4.578c-0.382-0.112-0.792-0.065-1.141,0.126c-0.349,0.191-0.607,0.514-0.717,0.896l-9.49,32.725
		c-0.724,2.488-0.433,5.111,0.818,7.385c1.008,1.831,2.546,3.248,4.404,4.111L16.322,81.77l-6.345-1.841
		c-0.797-0.233-1.627,0.227-1.858,1.022s0.227,1.628,1.022,1.858l7.771,2.255c0.003,0.001,0.006,0.003,0.01,0.004
		c0.003,0.001,0.005,0,0.008,0.001l7.77,2.255c0.14,0.041,0.28,0.06,0.418,0.06c0.65,0,1.25-0.426,1.44-1.082
		c0.231-0.796-0.227-1.628-1.022-1.858l-6.334-1.838l6.918-23.85c0.414,0.054,0.83,0.089,1.244,0.089
		c1.615,0,3.213-0.407,4.668-1.208c2.273-1.252,3.923-3.313,4.644-5.805l0,0.001l9.492-32.722
		C46.398,18.314,45.94,17.482,45.145,17.252z M33.794,50.996C33.794,50.996,33.794,50.997,33.794,50.996
		c-0.499,1.723-1.638,3.146-3.209,4.012c-1.569,0.863-3.379,1.065-5.101,0.567c-0.001,0-0.002-0.001-0.003-0.001
		c-0.001,0-0.003,0-0.004-0.001c-1.722-0.499-3.147-1.64-4.012-3.213c-0.865-1.571-1.065-3.383-0.566-5.102l2.083-7.183h13.981
		L33.794,50.996z M37.833,37.075H23.851l6.119-21.103l12.898,3.742L37.833,37.075z"/>
	<path d="M91.877,80.619c-0.245-0.792-1.083-1.233-1.876-0.991l-6.311,1.95l-7.332-23.733c4.225-2.066,6.451-6.954,5.024-11.578
		c0,0,0,0-0.001,0L71.318,13.712c-0.243-0.791-1.083-1.233-1.876-0.99l-15.696,4.851c-0.38,0.118-0.697,0.381-0.883,0.733
		c-0.187,0.352-0.225,0.763-0.106,1.143l10.062,32.553c0.766,2.477,2.45,4.508,4.743,5.719c1.417,0.749,2.962,1.129,4.521,1.129
		c0.47,0,0.942-0.037,1.412-0.107l7.328,23.721l-6.298,1.946c-0.792,0.245-1.235,1.085-0.991,1.876
		c0.199,0.645,0.793,1.058,1.434,1.058c0.146,0,0.295-0.021,0.442-0.066l15.477-4.782C91.678,82.25,92.121,81.41,91.877,80.619z
		 M68.896,16.031l3.783,12.239H58.623l-2.557-8.273L68.896,16.031z M68.963,55.069c-1.585-0.837-2.749-2.24-3.278-3.953L59.55,31.27
		h14.055l4.909,15.883c1.09,3.528-0.897,7.289-4.428,8.389c-0.003,0.001-0.006,0.001-0.01,0.002
		c-0.004,0.001-0.007,0.003-0.01,0.004C72.359,56.074,70.545,55.906,68.963,55.069z"/>
</g>
</svg>
