<?xml version="1.0" encoding="UTF-8" standalone="no"?> <svg id="Layer_1" data-name="Layer 1" xmlns="http://www.w3.org/2000/svg" viewBox="0 0 48 48"><title>gereja</title><path d="M22.274,23.429h3.467a.5.5,0,0,0,.5-.5V19.462a.5.5,0,0,0-.145-.352l-1.734-1.741a.514.514,0,0,0-.709,0L21.92,19.11a.5.5,0,0,0-.146.352v3.467A.5.5,0,0,0,22.274,23.429Zm.5-3.76,1.234-1.239,1.233,1.239v2.76H22.774Z"/><path d="M42.116,31.64a.5.5,0,0,0-.137-.552l-4.408-3.882a.5.5,0,0,0-.331-.125H31.1V20.825h1.727a.5.5,0,0,0,.354-.853L25.386,12.18V7.185h3.281a.5.5,0,0,0,.5-.5V5.022a.5.5,0,0,0-.5-.5H25.386V1.5a.5.5,0,0,0-.5-.5h-1.78a.5.5,0,0,0-.5.5V4.522H19.333a.5.5,0,0,0-.5.5V6.685a.5.5,0,0,0,.5.5h3.273V12.19l-7.769,7.782a.5.5,0,0,0,.354.853H16.9v6.256H10.76a.5.5,0,0,0-.331.125L6.021,31.088a.5.5,0,0,0,.331.875h1.9V46.5a.5.5,0,0,0,.5.5h30.5a.5.5,0,0,0,.5-.5V31.963h1.9A.5.5,0,0,0,42.116,31.64ZM23.606,11.188v-4.5a.5.5,0,0,0-.5-.5H19.833V5.522h3.273a.5.5,0,0,0,.5-.5V2h.78V5.022a.5.5,0,0,0,.5.5h3.281v.663H24.886a.5.5,0,0,0-.5.5v4.5l-.032-.033a.5.5,0,0,0-.708,0Zm-6.2,8.637H16.4L24,12.208l.533.533,7.084,7.084H30.6a.5.5,0,0,0-.5.5v6.756H17.9V20.325A.5.5,0,0,0,17.4,19.825ZM9.251,31.963H16.9V46H15.676V39.245a2.708,2.708,0,0,0-5.416,0V46H9.251Zm20.846,0V46H28.171V40.711a4.171,4.171,0,0,0-8.342,0V46H17.9V31.963ZM27.171,46H20.829V40.711a3.171,3.171,0,1,1,6.342,0ZM14.676,46H11.26V39.245a1.708,1.708,0,1,1,3.416,0ZM36.74,46H33.324V39.245a1.706,1.706,0,0,1,1.7-1.7,1.7,1.7,0,0,1,1.712,1.7Zm2.009,0H37.74V39.245a2.694,2.694,0,0,0-2.712-2.7,2.706,2.706,0,0,0-2.7,2.7V46H31.1V31.963h7.652Zm.5-15.037H7.676l3.273-2.882h26.1l3.273,2.882Z"/></svg>