<?xml version="1.0" encoding="UTF-8"?>
<!DOCTYPE svg PUBLIC "-//W3C//DTD SVG 1.1//EN" "http://www.w3.org/Graphics/SVG/1.1/DTD/svg11.dtd">
<!-- Creator: CorelDRAW -->
<svg xmlns="http://www.w3.org/2000/svg" xml:space="preserve" width="512px" height="512px" version="1.1" style="shape-rendering:geometricPrecision; text-rendering:geometricPrecision; image-rendering:optimizeQuality; fill-rule:evenodd; clip-rule:evenodd"
viewBox="0 0 512 512"
 xmlns:xlink="http://www.w3.org/1999/xlink">
 <defs>
  <style type="text/css">
   <![CDATA[
    .fil0 {fill:black}
   ]]>
  </style>
 </defs>
 <g id="Layer_x0020_1">
  <metadata id="CorelCorpID_0Corel-Layer"/>
  <g id="_494465248">
   <g>
    <g>
     <path class="fil0" d="M241 111c-25,0 -42,-18 -47,-38 -5,-23 6,-51 37,-58 0,0 0,0 0,0 13,-3 26,-1 37,6 11,7 19,18 21,30 3,13 1,26 -6,37 -7,11 -18,19 -30,22 -5,1 -9,1 -12,1zm-7 -82c-23,5 -30,24 -26,41 4,16 18,31 42,26 8,-2 16,-8 21,-15 4,-6 7,-15 4,-27 0,0 0,0 0,0 -1,-8 -7,-16 -15,-21 -5,-4 -14,-7 -26,-4l0 0z"/>
    </g>
    <g>
     <path class="fil0" d="M51 327c-22,0 -41,-15 -41,-33 0,-10 7,-20 17,-27 9,-5 19,-7 28,-5l0 -117c0,-4 3,-7 7,-7 4,0 7,3 7,7 0,14 12,19 31,28 23,9 51,22 42,60 0,0 0,0 0,0 -7,31 -19,36 -25,37 -6,0 -12,-3 -15,-10 -1,-3 -1,-6 1,-8 2,-2 8,-10 -4,-22 0,0 0,0 0,0 -3,-4 -5,-6 -7,-7l0 71c0,18 -18,33 -41,33zm-2 -51c-5,0 -10,1 -15,4 -6,3 -10,9 -10,14 0,10 13,19 27,19 15,0 27,-9 27,-19l0 -79c0,-1 0,-1 0,-2 1,-2 3,-6 8,-7 6,-2 13,3 23,14 13,13 12,26 9,35 2,-3 7,-10 10,-25 7,-26 -8,-34 -33,-44 -9,-4 -18,-8 -26,-14l0 100c0,2 -1,5 -3,6 -2,1 -5,1 -7,0 -3,-2 -7,-2 -10,-2zm86 -44l0 0 0 0z"/>
    </g>
    <g>
     <path class="fil0" d="M409 264c-23,0 -41,-15 -41,-34 0,-10 6,-19 16,-25 9,-6 20,-8 29,-7l0 -116c0,-4 3,-7 7,-7 4,0 7,3 7,7 0,13 12,19 31,27 12,5 24,10 33,19 10,10 13,24 9,41 -7,29 -17,36 -25,37 -6,1 -12,-3 -15,-10 -1,-3 -1,-6 1,-8 2,-1 8,-10 -4,-22 0,0 0,0 0,0 -3,-4 -5,-6 -7,-7l0 71c0,19 -18,34 -41,34zm-2 -52c-5,0 -11,1 -16,4 -5,4 -9,9 -9,14 0,11 12,20 27,20 15,0 27,-9 27,-20l0 -79c0,-1 0,-1 0,-2 1,-2 3,-6 8,-7 6,-2 13,3 23,14 13,14 12,27 9,35 2,-2 7,-8 10,-25 0,0 0,0 0,0 7,-26 -8,-34 -33,-44 -9,-4 -18,-8 -26,-13l0 99c0,2 -1,5 -3,6 -2,1 -5,1 -7,0 -3,-1 -6,-2 -10,-2z"/>
    </g>
    <g>
     <path class="fil0" d="M210 512c-4,0 -7,0 -11,-1 0,0 0,0 0,-1 -25,-9 -41,-62 -44,-72 -16,-63 -1,-110 7,-138 3,-8 5,-14 5,-18l0 -104c-23,-17 -47,-54 -60,-91 -14,-38 -15,-65 -3,-78 6,-7 15,-10 24,-8 12,2 22,10 26,21 2,6 3,12 4,19 4,16 7,35 27,59 1,2 1,3 2,4 5,6 6,7 17,9 20,4 41,9 62,14 12,2 42,0 56,-4 -2,-4 -4,-10 -6,-16 -11,-31 -19,-56 -10,-69 1,0 1,0 1,0 5,-8 14,-12 24,-12 9,0 18,4 24,12 0,0 0,0 0,0 6,9 10,22 14,34 0,3 1,5 2,8 3,9 6,17 8,24 11,31 17,47 10,60 -9,14 -32,16 -88,22 -2,0 -4,0 -7,0 0,29 0,58 -1,88 0,22 4,40 8,60 1,4 2,8 2,12 11,-6 24,-15 32,-21 2,-2 4,-3 5,-4 13,-10 26,-14 37,-11 6,2 15,7 20,21 9,25 -11,39 -23,47 -2,1 -3,3 -5,4 0,0 0,0 0,0 -12,8 -26,17 -44,27 0,0 -1,0 -1,0l-2 1c-9,6 -22,12 -35,12 -8,0 -15,-2 -22,-8 -16,-12 -19,-35 -22,-55 -2,-11 -3,-22 -7,-26 -2,-2 -5,-4 -8,-4 -3,0 -5,1 -7,3 0,0 0,0 0,0 -5,5 -7,39 -6,57 3,29 12,47 20,62 9,18 17,34 -1,51 -7,7 -15,10 -24,10zm-7 -15c8,2 16,0 21,-5 0,0 0,0 0,0 10,-10 8,-16 -2,-35 -7,-15 -18,-36 -21,-67 0,0 0,0 0,0 0,0 -2,-54 10,-68 4,-4 10,-7 17,-7 7,0 14,3 19,8 6,7 8,20 10,34 2,18 5,37 17,46 0,0 0,0 0,0 11,10 25,4 42,-5l2 -1c18,-10 32,-19 43,-27 2,-1 3,-2 5,-4 14,-9 23,-17 18,-31 -3,-6 -6,-10 -11,-11 -6,-2 -15,1 -25,8 0,0 0,0 0,0 -1,1 -3,3 -5,4 -12,8 -30,22 -42,26 -2,1 -4,1 -6,0 -2,-1 -3,-3 -4,-5 -1,-7 -3,-14 -4,-21 -4,-20 -8,-39 -8,-62 0,0 0,0 0,0 1,-32 1,-64 1,-94 0,-4 3,-7 6,-7 5,-1 10,-1 14,-2 44,-4 71,-7 77,-15 4,-6 -2,-23 -11,-47 -3,-8 -6,-16 -9,-25 0,0 0,0 0,0 -1,-3 -1,-5 -2,-8 -3,-11 -7,-23 -12,-30 -3,-4 -7,-6 -13,-6 -5,0 -9,2 -12,6 -2,2 -3,7 0,21 3,12 7,24 11,35 4,10 7,18 8,24 0,3 -1,7 -4,8 -13,7 -55,10 -71,7 0,0 0,0 0,0 -20,-5 -42,-10 -62,-14 -15,-3 -18,-6 -24,-15 -1,-1 -2,-2 -3,-3 -21,-27 -25,-48 -29,-66 -1,-6 -2,-12 -4,-17 -2,-5 -8,-10 -15,-12 -3,0 -8,0 -11,4 -4,4 -11,19 5,64 13,36 37,72 59,86 2,1 3,3 3,6l0 108c0,0 0,0 0,0 -1,6 -3,13 -6,22 -8,27 -22,72 -6,130 8,28 22,58 34,63z"/>
    </g>
   </g>
  </g>
 </g>
</svg>
