<?xml version="1.0" encoding="UTF-8" standalone="no"?> <svg xmlns="http://www.w3.org/2000/svg" viewBox="0 0 512 512"><g id="outline_cut" data-name="outline cut"><path d="M256,88C163.36,88,88,163.36,88,256s75.36,168,168,168,168-75.36,168-168S348.64,88,256,88Zm0,320c-83.81,0-152-68.19-152-152s68.19-152,152-152,152,68.19,152,152S339.81,408,256,408Z"/><path d="M256,128A128,128,0,1,0,384,256,128.14,128.14,0,0,0,256,128Zm0,240A112,112,0,1,1,368,256,112.12,112.12,0,0,1,256,368Z"/><path d="M488,48a8,8,0,0,0-15.43-3A453.47,453.47,0,0,0,440,214.16V273a23.14,23.14,0,0,0,1.09,7H432v16h15.57l-6.72,127.6a23.18,23.18,0,1,0,46.3,0L480.43,296H496V280h-8ZM456,214.16A437.55,437.55,0,0,1,472,96.58V280h-9a7,7,0,0,1-7-7Zm13.21,215.6a7.18,7.18,0,0,1-12.38-5.32L463.59,296h.82l6.76,128.44A7.12,7.12,0,0,1,469.21,429.76Z"/><path d="M39.86,172.59,32.47,423.77a23.54,23.54,0,1,0,47.06,0L72.14,172.59A40.06,40.06,0,0,0,96,136V64H80v40a8,8,0,0,1-16,0V64H48v40a8,8,0,0,1-16,0V64H16v72A40.06,40.06,0,0,0,39.86,172.59ZM56.23,176l7.3,248.24a7.53,7.53,0,1,1-15.06,0L55.77,176ZM40,128a23.9,23.9,0,0,0,16-6.13,23.92,23.92,0,0,0,24,4.75V136a24,24,0,0,1-48,0v-9.38A23.84,23.84,0,0,0,40,128Z"/></g></svg>